<svg xmlns="http://www.w3.org/2000/svg" width="68" height="74" fill="none" viewBox="0 0 68 74"><path fill="#3FC0FC" fill-rule="evenodd" d="M22.4259 68.5278C16.0259 66.7318 9.32534 65.8258 2.82534 64.9958C1.42534 64.8218 0.125535 65.7928 0.0255346 67.1608C-0.174465 68.5298 0.826121 69.7818 2.12612 69.9557C8.42612 70.7548 14.9255 71.6097 21.0255 73.3387C22.3255 73.7137 23.7261 72.9418 24.1261 71.6138C24.5261 70.2868 23.7259 68.9038 22.4259 68.5278Z" clip-rule="evenodd"/><path fill="#3FC0FC" fill-rule="evenodd" d="M41.8251 43.0649C31.5251 32.5539 19.9251 23.3959 9.8251 12.6029C8.9251 11.5949 7.3251 11.5409 6.3251 12.4819C5.3251 13.4239 5.22549 15.0079 6.22549 16.0159C16.3255 26.8399 27.9255 36.0279 38.2255 46.5699C39.2255 47.5539 40.8251 47.5679 41.8251 46.5999C42.7251 45.6329 42.8251 44.0489 41.8251 43.0649Z" clip-rule="evenodd"/><path fill="#3FC0FC" fill-rule="evenodd" d="M61.1274 2.63576C61.4274 8.65176 61.7268 14.6678 62.0268 20.6848C62.0268 22.0628 63.2274 23.1268 64.6274 23.0598C66.0274 22.9918 67.0268 21.8188 67.0268 20.4398C66.7268 14.4138 66.4274 8.38876 66.1274 2.36376C66.0274 0.985757 64.8272 -0.0712432 63.4272 0.00375683C62.1272 0.0787568 61.0274 1.25876 61.1274 2.63576Z" clip-rule="evenodd"/></svg>