<svg xmlns="http://www.w3.org/2000/svg" width="100" height="93" fill="none" viewBox="0 0 100 93"><path fill="#1B208D" fill-rule="evenodd" d="M11.8426 28.2581C14.8871 20.6094 16.8746 12.4747 18.7424 4.57721C19.1388 2.87558 18.112 1.14841 16.4402 0.847294C14.7801 0.422887 13.108 1.49236 12.7245 3.07083C10.921 10.7261 9.02248 18.6196 6.09951 25.9076C5.46855 27.4599 6.23715 29.2853 7.8207 29.9507C9.40302 30.616 11.2104 29.8103 11.8426 28.2581Z" clip-rule="evenodd"/><path fill="#1B208D" fill-rule="evenodd" d="M40.6803 55.4628C54.9657 44.1445 67.7538 31.049 82.3604 20.0137C83.719 19.0364 83.9936 17.0728 82.9647 15.7188C81.9346 14.3646 79.9967 14.0359 78.6252 15.1364C63.9803 26.1677 51.1553 39.2592 36.8317 50.5735C35.4897 51.6772 35.2644 53.6454 36.3265 55.003C37.4004 56.2372 39.3383 56.5664 40.6803 55.4628Z" clip-rule="evenodd"/><path fill="#1B208D" fill-rule="evenodd" d="M87.9619 84.4935C80.5135 84.0804 73.0652 83.6666 65.6155 83.2534C63.9183 83.0741 62.4517 84.4144 62.3521 86.1474C62.2538 87.8805 63.5684 89.264 65.2668 89.4433C72.7276 89.8577 80.187 90.2727 87.6465 90.687C89.3567 90.7431 90.8146 89.4024 90.9044 87.6684C90.9811 86.0575 89.6709 84.5495 87.9619 84.4935Z" clip-rule="evenodd"/></svg>